<?xml version="1.0" encoding="UTF-8" standalone="no"?>
<!-- Created with Inkscape (http://www.inkscape.org/) -->

<svg
   width="103.46501mm"
   height="103.45251mm"
   viewBox="0 0 103.46501 103.45251"
   version="1.1"
   id="svg1705"
   xmlns:inkscape="http://www.inkscape.org/namespaces/inkscape"
   xmlns:sodipodi="http://sodipodi.sourceforge.net/DTD/sodipodi-0.dtd"
   xmlns="http://www.w3.org/2000/svg"
   xmlns:svg="http://www.w3.org/2000/svg">
  <sodipodi:namedview
     id="namedview1707"
     pagecolor="#ffffff"
     bordercolor="#000000"
     borderopacity="0.25"
     inkscape:showpageshadow="2"
     inkscape:pageopacity="0.0"
     inkscape:pagecheckerboard="0"
     inkscape:deskcolor="#d1d1d1"
     inkscape:document-units="mm"
     showgrid="false" />
  <defs
     id="defs1702" />
  <g
     inkscape:label="Calque 1"
     inkscape:groupmode="layer"
     id="layer1"
     transform="translate(-8.6170961,-11.2212)">
    <circle
       style="fill:#ffffff;stroke-width:0.264583"
       id="path2281"
       cx="61.138641"
       cy="62.808121"
       r="49.145996"
       inkscape:export-filename="logo.svg"
       inkscape:export-xdpi="96"
       inkscape:export-ydpi="96" />
    <path
       style="fill:#e72483;fill-opacity:1;stroke-width:0.264583"
       d="m 30.996247,114.38045 c -10.36071,-1.51106 -18.94952,-9.09553 -21.4502904,-18.94197 -0.87832,-3.45828 -0.91864,-5.41036 -0.92386,-44.72822 l -0.005,-39.48906 39.4890704,0.002 c 42.93263,0.002 42.36548,-0.0163 46.50894,1.47132 4.05417,1.45551 6.803983,3.18757 9.811253,6.17993 3.31122,3.2948 5.47521,7.08175 6.81338,11.92332 l 0.69557,2.51658 0.0734,40.67968 0.0734,40.67969 -39.760123,-0.0323 c -21.86806,-0.0178 -40.46455,-0.135 -41.32552,-0.26057 z M 109.35833,72.53838 c -0.084,-44.30697 0.0916,-40.45538 -2.05537,-45.09116 -2.40703,-5.19742 -6.221,-9.02206 -11.415003,-11.44695 -4.6311,-2.1621 -0.57003,-1.97576 -45.00975,-2.06518 l -39.6272,-0.0797 0.0797,39.62719 c 0.0894,44.43972 -0.0969,40.37865 2.06518,45.00975 1.7719,3.79532 4.70137,7.28625 8.00737,9.54209 2.56302,1.74887 6.75341,3.41436 9.57086,3.804 0.43656,0.0604 18.26844,0.12761 39.6264,0.14942 l 38.832653,0.0396 z"
       id="path149"
       sodipodi:nodetypes="csscccssccccccsssscssssscs"
       inkscape:export-filename="path149.svg"
       inkscape:export-xdpi="96"
       inkscape:export-ydpi="96" />
    <path
       style="fill:#222e5b;fill-opacity:1;stroke-width:0.264583"
       d="m 30.974147,111.83839 c -2.81744,-0.38964 -7.00784,-2.05513 -9.57085,-3.804 -3.30601,-2.25584 -6.23547,-5.74677 -8.00737,-9.54209 -2.1621,-4.6311 -1.97576,-0.57003 -2.06518,-45.00976 l -0.0797,-39.62719 39.6272,0.0797 c 44.43971,0.0894 40.37864,-0.0969 45.00975,2.06518 2.78628,1.30082 5.022893,2.89773 7.068023,5.04645 2.04043,2.14378 3.09412,3.69524 4.34698,6.4005 2.14693,4.63579 1.97136,0.7842 2.05537,45.09117 l 0.0749,39.48906 -38.832653,-0.0396 c -21.35796,-0.0218 -39.18984,-0.089 -39.6264,-0.14942 z m 8.48422,-10.41718 c 3.01476,-0.55207 5.37595,-2.3761 6.60803,-5.10472 0.9939,-2.20114 0.97064,-2.31809 -0.54016,-2.71591 -0.72761,-0.19158 -1.38427,-0.35064 -1.45925,-0.35344 -0.075,-0.003 -0.34863,0.59261 -0.6081,1.32316 -0.99002,2.78747 -3.21805,4.33373 -6.18356,4.29142 -1.83945,-0.0263 -3.76059,-0.74419 -4.89291,-1.82852 -1.47891,-1.41623 -2.54482,-5.40869 -2.23512,-8.37179 0.53969,-5.16342 2.96386,-7.71788 7.30915,-7.70197 3.03266,0.0111 4.59159,1.01745 5.70534,3.68303 0.28992,0.69388 0.52384,0.91968 0.85281,0.82321 0.24932,-0.0731 0.89979,-0.21206 1.44549,-0.30878 1.17564,-0.20835 1.21959,-0.47955 0.35441,-2.18689 -0.68113,-1.34415 -2.48966,-3.17449 -3.81266,-3.85863 -1.41591,-0.7322 -4.24705,-1.07826 -6.18886,-0.75649 -5.89845,0.9774 -9.41009,6.00961 -8.84649,12.67709 0.47942,5.67146 3.58535,9.61919 8.16857,10.38248 1.9822,0.33011 2.5526,0.33101 4.32331,0.007 z m 49.63012,-0.49647 c 2.68125,-1.0188 4.33677,-2.99534 4.63781,-5.53712 0.29511,-2.49179 -1.01134,-4.66497 -3.58385,-5.96149 -0.6735,-0.33943 -2.71283,-0.99005 -4.53184,-1.44583 -4.35916,-1.09223 -5.15652,-1.45969 -5.71326,-2.63294 -0.39947,-0.84183 -0.40845,-1.06697 -0.0802,-2.01262 0.55182,-1.58997 1.96617,-2.28528 4.66059,-2.2912 1.13964,-0.002 2.42631,0.12933 2.85926,0.29297 1.22558,0.46321 2.23748,1.5975 2.55694,2.86619 0.28854,1.14589 0.30216,1.15683 1.24537,1.00082 0.5245,-0.0868 1.17767,-0.15906 1.45149,-0.16066 0.42985,-0.003 0.47798,-0.15111 0.35233,-1.0879 -0.19367,-1.44397 -1.41106,-3.35844 -2.70853,-4.25946 -2.24946,-1.56213 -6.39054,-1.9319 -9.50088,-0.84837 -3.66292,1.27603 -5.2557,5.66446 -3.1456,8.66677 1.02204,1.45418 2.82624,2.32813 7.16918,3.47272 1.93175,0.50912 3.86539,1.10828 4.29699,1.33147 1.09284,0.56513 1.64845,1.52775 1.63054,2.82503 -0.0288,2.08915 -1.74038,3.37415 -4.78427,3.59194 -3.55876,0.25462 -6.27251,-1.20134 -6.94824,-3.72784 l -0.33059,-1.23602 h -1.43474 -1.43474 l 0.13014,1.15458 c 0.27682,2.45596 1.98799,4.72723 4.34798,5.77116 2.43379,1.07658 6.3587,1.17752 8.85816,0.2278 z m -35.69428,-9.07177 0.0695,-9.32656 3.175,9.33698 3.175,9.33698 1.42832,-0.0766 1.42833,-0.0766 3.06959,-8.86354 3.06959,-8.86354 0.0697,8.92969 0.0697,8.92968 h 1.58398 1.58398 V 89.93467 78.68988 h -2.08982 -2.08983 l -0.69052,1.91823 c -0.37978,1.05502 -1.8544,5.33478 -3.27692,9.51056 l -2.5864,7.59232 -3.16194,-9.51055 -3.16193,-9.51056 h -2.31923 -2.31924 v 11.24479 11.24479 h 1.45182 1.45182 z m -8.36321,-20.44204 c 2.40058,-0.80585 3.72057,-1.45938 4.82553,-2.38915 l 0.82908,-0.69762 v -5.14123 -5.14122 l -5.4901,0.0715 -5.49011,0.0715 -0.0768,2.18281 -0.0768,2.18281 h 2.93375 2.93374 l -0.0788,1.65365 -0.0788,1.65365 -1.7198,0.8564 c -4.7463,2.36351 -9.19699,0.72486 -10.6029,-3.90377 -0.81597,-2.6864 -0.65044,-6.64387 0.3608,-8.62598 0.75911,-1.48793 1.93645,-2.61476 3.36294,-3.21868 1.14118,-0.48314 4.02898,-0.53229 5.34036,-0.0909 1.02387,0.34461 2.68327,1.96532 2.98473,2.91514 0.11457,0.36099 0.39867,0.55841 0.80356,0.55841 0.6491,0 4.39858,-0.73904 4.55793,-0.89838 0.0497,-0.0497 -0.15592,-0.74861 -0.45693,-1.55314 -1.20961,-3.23296 -4.1217,-5.27929 -8.1372,-5.71801 -6.10817,-0.66735 -10.747,1.45599 -13.10288,5.99764 -1.21765,2.34735 -1.63693,4.18169 -1.61527,7.06668 0.0506,6.73361 3.94008,11.74288 9.95495,12.82085 2.21116,0.39627 5.77592,0.10672 8.03905,-0.65299 z m 22.05878,0.27076 c 3.97186,-1.39033 6.30692,-5.18899 6.01969,-9.79282 -0.16992,-2.72375 -1.02677,-4.62391 -2.8571,-6.33597 -2.04316,-1.91114 -3.31174,-2.37937 -6.46988,-2.38801 -2.37159,-0.006 -2.81863,0.0726 -4.31284,0.7625 -2.04683,0.94511 -3.75923,2.76186 -4.58599,4.86546 -0.82191,2.09124 -0.82029,5.63768 0.004,7.76518 1.43343,3.70179 5.16407,5.93764 9.42446,5.64826 0.87312,-0.0593 2.12328,-0.29538 2.77812,-0.5246 z m -5.45345,-4.07905 c -0.89195,-0.5439 -1.77584,-1.65653 -2.07092,-2.60687 -0.10201,-0.32851 -0.1828,-1.44012 -0.17955,-2.47024 0.01,-3.12837 1.27436,-4.93795 3.77423,-5.40127 1.23968,-0.22977 3.10199,0.55954 3.87217,1.64116 1.87862,2.63828 1.17773,7.55728 -1.26127,8.85186 -1.19916,0.63649 -3.07776,0.62984 -4.13466,-0.0146 z m 28.36726,-4.78769 c 1.94288,-4.87495 3.53522,-9.01684 3.53852,-9.2042 0.005,-0.25907 -0.57984,-0.32244 -2.44001,-0.26459 l -2.44601,0.0761 -1.16118,3.04271 c -0.63864,1.67349 -1.66386,4.4588 -2.27826,6.18958 -0.9904,2.78997 -1.13877,3.06003 -1.30822,2.38125 -0.31532,-1.26307 -3.91009,-11.05826 -4.18928,-11.4151 -0.37986,-0.48552 -4.95646,-0.46188 -4.95646,0.0256 0,0.19599 1.44051,3.91669 3.20112,8.26823 1.76062,4.35154 3.38266,8.3628 3.60454,8.9139 l 0.40341,1.00202 2.24966,-0.076 2.24966,-0.076 z M 58.007677,39.92849 c 1.1861,-1.09141 2.23695,-1.98438 2.33522,-1.98438 0.0983,0 1.14913,0.89297 2.33523,1.98438 1.1861,1.0914 2.24949,1.98437 2.3631,1.98437 0.1136,0 0.15161,-0.26789 0.0845,-0.59531 -0.0671,-0.32742 -0.19405,-1.73421 -0.28201,-3.1262 l -0.15993,-2.53089 2.59207,-0.35494 c 4.26515,-0.58404 4.19232,-0.42776 1.15639,-2.48148 -2.18621,-1.47891 -2.61934,-1.87987 -2.42433,-2.24425 0.13059,-0.244 0.83873,-1.48482 1.57365,-2.75737 0.73492,-1.27255 1.19281,-2.31162 1.01754,-2.30905 -0.17527,0.003 -1.44389,0.35976 -2.81916,0.79375 -1.37526,0.43399 -2.6367,0.78908 -2.80318,0.78908 -0.16649,0 -0.81593,-1.30969 -1.44321,-2.91042 -0.62728,-1.60073 -1.17032,-2.91042 -1.20675,-2.91042 -0.0364,0 -0.57028,1.30969 -1.18632,2.91042 -0.61604,1.60073 -1.25235,2.90909 -1.41402,2.90746 -0.16167,-0.002 -1.42505,-0.35748 -2.80749,-0.79079 -1.38245,-0.43332 -2.65695,-0.78918 -2.83222,-0.7908 -0.17528,-0.002 0.28262,1.03822 1.01754,2.31077 0.73492,1.27255 1.44574,2.51838 1.57961,2.76851 0.20257,0.37851 -0.16771,0.72851 -2.20817,2.08718 -1.34836,0.89783 -2.55179,1.72272 -2.6743,1.83309 -0.12251,0.11038 1.22253,0.414 2.98897,0.67472 l 3.2117,0.47403 -0.15995,2.53114 c -0.088,1.39213 -0.21488,2.79904 -0.28202,3.12646 -0.0671,0.32742 -0.0291,0.59531 0.0845,0.59531 0.11361,0 1.177,-0.89297 2.3631,-1.98437 z"
       id="path147" />
  </g>
</svg>
